<svg width="206" height="203" viewBox="0 0 206 203" fill="none" xmlns="http://www.w3.org/2000/svg">
<path d="M104.548 2.70312C129.792 2.70312 149.763 21.074 149.763 43.1572C149.763 65.2403 129.792 83.6113 104.548 83.6113C79.3038 83.6112 59.3341 65.2403 59.334 43.1572C59.334 21.0741 79.3038 2.70324 104.548 2.70312Z" stroke="black" stroke-width="5.40556"/>
<path d="M102.703 99.793C66.3663 99.793 33.5348 121.472 19.2645 154.889L15.5943 163.484C8.20744 180.782 20.8986 200.001 39.7077 200.001H102.703" stroke="black" stroke-width="5.40556"/>
<path d="M102.709 99.793C139.046 99.793 171.877 121.472 186.148 154.889L189.818 163.484C197.205 180.782 184.514 200.001 165.704 200.001H102.709" stroke="black" stroke-width="5.40556"/>
</svg>
