<svg width="150" height="93" viewBox="0 0 150 93" fill="none" xmlns="http://www.w3.org/2000/svg">
<g clip-path="url(#clip0_725_200)">
<path d="M105.344 43.75H112.5V46.875H104.031L100.906 43.75H78.125V48.4375C78.125 51.0312 80.2188 53.125 82.8125 53.125H112.5V56.25H82.8125C78.5 56.25 75 52.75 75 48.4375V40.625H81.25V0H143.75V21.875H140.625V3.125H84.375V40.625H102.219L105.344 43.75ZM150 35.9375V75H118.75V35.9375C118.75 31.625 122.25 28.125 126.562 28.125H142.188C146.5 28.125 150 31.625 150 35.9375ZM146.875 35.9375C146.875 33.3438 144.781 31.25 142.188 31.25H126.562C123.969 31.25 121.875 33.3438 121.875 35.9375V71.875H146.875V35.9375Z" fill="#ABCC7D"/>
</g>
<path d="M46.7898 54.7489C44.7341 53.5251 42.7432 52.3353 40.8136 51.1626C48.2727 46.816 54.5932 43.3558 54.5455 34.2603C54.5455 22.3114 49.4489 17.2148 37.5 17.2148C26.2023 17.2148 20.9489 21.9228 20.4545 32.4773C20.4102 33.4183 21.1398 34.216 22.0773 34.2569C23.0352 34.366 23.8159 33.5751 23.8602 32.6342C24.2659 23.8796 27.9648 20.6239 37.4966 20.6239C47.5636 20.6239 51.133 24.1933 51.133 34.2603C51.583 42.0773 43.6909 45.4319 36.5932 49.6898C33.9784 51.3228 31.125 53.0171 28.2068 54.7489C14.3386 62.9785 0 71.4876 0 79.7683C0 86.3273 2.66932 89.583 8.61818 90.3296C17.175 91.5773 26.8909 92.2148 37.5 92.2148C48.1091 92.2148 57.825 91.5773 66.3477 90.333C72.3307 89.583 75 86.3273 75 79.7683C75 71.4876 60.658 62.9785 46.7932 54.7489H46.7898ZM65.8875 86.9512C57.6136 88.1614 47.7955 88.8023 37.4966 88.8023C27.1977 88.8023 17.383 88.1614 9.07159 86.9478C4.78295 86.4126 3.40568 84.6671 3.40568 79.7683C3.40568 73.4308 18.1193 64.6967 29.9455 57.6808C32.5534 56.133 35.1136 54.616 37.4966 53.1433C39.8795 54.616 42.4398 56.133 45.0477 57.6808C56.8739 64.7001 71.5875 73.4308 71.5875 79.7683C71.5875 84.6705 70.2102 86.4126 65.8875 86.9512Z" fill="#ABCC7D"/>
<defs>
<clipPath id="clip0_725_200">
<rect width="75" height="75" fill="white" transform="translate(75)"/>
</clipPath>
</defs>
</svg>
