<svg width="150" height="102" viewBox="0 0 150 102" fill="none" xmlns="http://www.w3.org/2000/svg">
<g clip-path="url(#clip0_725_199)">
<path d="M139.062 40.625H136.678C136.965 39.3937 137.228 38.1625 137.437 36.9281C137.799 34.825 137.19 32.6562 135.774 30.975C134.253 29.1687 132.031 28.1344 129.678 28.1344L82.815 28.125C80.4619 28.125 78.2369 29.1594 76.715 30.9656C75.3025 32.6469 74.6932 34.8187 75.0557 36.9219C78.1682 55.0687 90.3682 73.525 90.8838 74.3031L91.3463 75H121.149L121.612 74.3031C121.903 73.8656 125.903 67.8156 129.896 59.375H139.062C144.99 59.375 149.999 54.5719 149.999 48.8844C149.999 43.7156 145.912 40.625 139.062 40.625ZM119.462 71.875H93.0369C90.7932 68.3406 80.8057 51.9625 78.1338 36.3937C77.9275 35.1813 78.2713 33.9688 79.1057 32.9781C80.0182 31.8938 81.4057 31.2469 82.8182 31.2469L129.681 31.2563C131.09 31.2563 132.474 31.9031 133.39 32.9875C134.224 33.975 134.568 35.1875 134.362 36.4031C131.696 51.9625 121.709 68.3406 119.462 71.875ZM139.062 56.25H131.318C133.021 52.3719 134.628 48.1188 135.862 43.75H139.062C141.981 43.75 146.874 44.4187 146.874 48.8844C146.874 52.8094 143.224 56.25 139.062 56.25ZM105.346 22.8906L106.249 23.5281L107.153 22.8906C108.34 22.05 118.749 14.4906 118.749 7.57812C118.749 3.4 115.596 0 111.718 0C109.512 0 107.54 1.10312 106.249 2.81875C104.959 1.1 102.987 0 100.781 0C96.9025 0 93.7494 3.4 93.7494 7.57812C93.7494 14.4906 104.162 22.0531 105.346 22.8906ZM100.781 3.125C102.934 3.125 104.687 5.125 104.687 7.57812V9.375H107.812V7.57812C107.812 5.125 109.565 3.125 111.718 3.125C113.871 3.125 115.624 5.125 115.624 7.57812C115.624 11.6594 109.515 17.175 106.249 19.675C102.981 17.1781 96.8744 11.6687 96.8744 7.57812C96.8744 5.125 98.6275 3.125 100.781 3.125Z" fill="#ABCC7D"/>
</g>
<g clip-path="url(#clip1_725_199)">
<path d="M66.4144 53.8445C64.9905 52.5524 63.1397 51.8762 61.2316 51.9793C59.312 52.0682 57.5414 52.899 56.2493 54.3201L45.557 66.0753C44.6573 62.9009 41.7321 60.5659 38.274 60.5659H10.0276C4.49811 60.5659 0 65.064 0 70.5935V84.9187C0 90.4482 4.49811 94.9463 10.0276 94.9463H27.1176C34.8704 94.9463 42.2794 91.6257 47.4393 85.8355L66.9387 63.9466C69.5459 61.0185 69.3138 56.4861 66.4144 53.8445ZM64.8014 62.0385L45.302 83.9274C40.6835 89.1102 34.0567 92.0813 27.1176 92.0813H10.0276C6.07961 92.0813 2.86504 88.8696 2.86504 84.9187V70.5935C2.86504 66.6426 6.07961 63.4309 10.0276 63.4309H38.2712C40.864 63.4309 42.9756 65.5424 42.9756 68.1382C42.9756 70.4646 41.2393 72.4672 38.9674 72.791L21.3159 74.9025C20.5309 74.9942 19.9693 75.7076 20.0639 76.4955C20.1613 77.2776 20.8489 77.8707 21.6568 77.7475L39.337 75.6331C42.265 75.2148 44.6258 73.1176 45.4853 70.4073L58.3637 56.2568C59.143 55.4002 60.2088 54.8988 61.3634 54.8472C62.5037 54.7871 63.6267 55.1939 64.4805 55.9703C66.2225 57.5633 66.3657 60.288 64.7957 62.0471L64.8014 62.0385ZM14.8896 45.6104L12.9328 51.8819C12.4515 53.4262 12.9929 55.1137 14.2908 56.0878C14.9555 56.5863 15.7491 56.8499 16.58 56.8499C17.3363 56.8499 18.0727 56.6264 18.7058 56.2024L24.3843 52.4034L30.1688 56.168C31.5297 57.0505 33.3003 56.9731 34.5839 55.9904C35.8703 55.002 36.3888 53.303 35.8817 51.7645L33.8533 45.5874L38.7525 41.5907C39.9759 40.5679 40.4314 38.8661 39.8842 37.3562C39.337 35.8578 37.893 34.8464 36.2943 34.8464H30.1402L27.937 28.6637C27.384 27.1767 25.9458 26.1797 24.3557 26.1797C22.7656 26.1797 21.3302 27.1796 20.7687 28.6837L18.5712 34.8464H12.4171C10.8241 34.8464 9.383 35.8521 8.83291 37.3476C8.28282 38.8432 8.72977 40.545 9.97033 41.5965L14.8925 45.6018L14.8896 45.6104ZM11.5174 38.3446C11.655 37.9693 12.016 37.7172 12.4142 37.7172H19.5768C20.1813 37.7172 20.7228 37.3361 20.9262 36.766L23.4561 29.6693C23.7311 28.9244 24.9774 28.9444 25.2381 29.6492L27.7737 36.7631C27.9771 37.3333 28.5186 37.7143 29.1231 37.7143H36.2857C36.6868 37.7143 37.0478 37.9665 37.1825 38.3418C37.32 38.72 37.2054 39.1411 36.916 39.3846L31.269 43.9859C30.8077 44.3612 30.6272 44.9801 30.8135 45.5445L33.1513 52.6612C33.2774 53.048 33.1513 53.4692 32.8305 53.7156C32.5067 53.962 32.0598 53.982 31.7217 53.7643L25.1464 49.481C24.6651 49.1687 24.0463 49.1716 23.5678 49.4925L17.1071 53.8187C16.7719 54.0422 16.3135 54.0193 16.0012 53.7929C15.6775 53.5494 15.54 53.1254 15.6632 52.7357L17.9093 45.5359C18.0841 44.9772 17.9008 44.3669 17.4452 43.9974L11.7925 39.399C11.4888 39.1383 11.3742 38.7142 11.5117 38.3418L11.5174 38.3446Z" fill="#ABCC7D"/>
</g>
<defs>
<clipPath id="clip0_725_199">
<rect width="75" height="75" fill="white" transform="translate(75)"/>
</clipPath>
<clipPath id="clip1_725_199">
<rect width="75" height="75" fill="white" transform="translate(0 26.1914)"/>
</clipPath>
</defs>
</svg>
